<svg xmlns="http://www.w3.org/2000/svg" viewBox="0 0 200 200" fill="none">
  <!-- Background circle -->
  <circle cx="100" cy="100" r="100" fill="#f8fafc" opacity="0.3"/>
  
  <!-- Heart -->
  <g>
    <!-- Left atrium -->
    <path d="M85 70C85 70 75 80 75 90C75 100 85 110 100 110C115 110 125 100 125 90C125 80 115 70 115 70L100 80L85 70Z" fill="#ef4444"/>
    
    <!-- Right atrium -->
    <path d="M85 70C85 70 75 80 75 90C75 100 85 110 100 110C115 110 125 100 125 90C125 80 115 70 115 70L100 80L85 70Z" fill="#dc2626" opacity="0.8"/>
    
    <!-- Ventricles -->
    <path d="M80 110C80 110 70 130 70 150C70 160 130 160 130 150C130 130 120 110 120 110L100 120L80 110Z" fill="#ef4444"/>
    
    <!-- Aorta -->
    <rect x="95" y="60" width="10" height="20" rx="5" fill="#dc2626"/>
    
    <!-- Pulmonary artery -->
    <path d="M90 75C90 75 80 65 70 65" stroke="#dc2626" stroke-width="4" stroke-linecap="round"/>
    <path d="M110 75C110 75 120 65 130 65" stroke="#dc2626" stroke-width="4" stroke-linecap="round"/>
  </g>
  
  <!-- Chest cavity outline -->
  <path d="M60 80C60 80 50 100 50 130C50 150 150 150 150 130C150 100 140 80 140 80L130 90C130 90 120 110 120 130C120 140 80 140 80 130C80 110 70 90 70 90L60 80Z" stroke="#64748b" stroke-width="2" fill="none" stroke-dasharray="4 2"/>
  
  <!-- Department indicator - red circle for cardiothoracic surgery -->
  <circle cx="100" cy="110" r="20" stroke="#ef4444" stroke-width="2" stroke-dasharray="4 2" fill="none"/>
</svg> 