<svg xmlns="http://www.w3.org/2000/svg" viewBox="0 0 200 200" fill="none">
  <!-- Background circle -->
  <circle cx="100" cy="100" r="100" fill="#f8fafc" opacity="0.3"/>
  
  <!-- Human silhouette - woman -->
  <g>
    <!-- Head -->
    <circle cx="100" cy="45" r="18" fill="#64748b"/>
    
    <!-- Hair -->
    <path d="M82 35C82 35 85 20 100 20C115 20 118 35 118 35V50C118 50 115 55 100 55C85 55 82 50 82 50V35Z" fill="#475569"/>
    
    <!-- Neck -->
    <rect x="95" y="63" width="10" height="12" rx="5" fill="#64748b"/>
    
    <!-- Body with feminine shape -->
    <path d="M75 75C75 75 70 95 70 115C70 125 85 140 100 140C115 140 130 125 130 115C130 95 125 75 125 75L115 85C115 85 120 100 120 110C120 120 110 130 100 130C90 130 80 120 80 110C80 100 85 85 85 85L75 75Z" fill="#64748b"/>
    
    <!-- Arms -->
    <path d="M75 85C65 95 60 110 65 120" stroke="#64748b" stroke-width="8" stroke-linecap="round"/>
    <path d="M125 85C135 95 140 110 135 120" stroke="#64748b" stroke-width="8" stroke-linecap="round"/>
    
    <!-- Legs -->
    <path d="M90 140L85 180" stroke="#64748b" stroke-width="8" stroke-linecap="round"/>
    <path d="M110 140L115 180" stroke="#64748b" stroke-width="8" stroke-linecap="round"/>
  </g>
  
  <!-- Department indicator - purple female symbol for gynecology -->
  <circle cx="100" cy="105" r="8" stroke="#a855f7" stroke-width="2" fill="none"/>
  <path d="M100 113L100 123" stroke="#a855f7" stroke-width="2" stroke-linecap="round"/>
  <path d="M95 118L105 118" stroke="#a855f7" stroke-width="2" stroke-linecap="round"/>
</svg> 