<svg xmlns="http://www.w3.org/2000/svg" viewBox="0 0 200 200" fill="none">
  <!-- Background circle -->
  <circle cx="100" cy="100" r="100" fill="#f8fafc" opacity="0.3"/>
  
  <!-- Human silhouette - child -->
  <g>
    <!-- Head - larger in proportion for child -->
    <circle cx="100" cy="60" r="25" fill="#64748b"/>
    
    <!-- Hair - simple child-like hair -->
    <path d="M80 50C80 40 90 30 100 30C110 30 120 40 120 50" stroke="#475569" stroke-width="6" stroke-linecap="round"/>
    
    <!-- Face features - simple and friendly -->
    <circle cx="90" cy="55" r="2" fill="#1e293b"/>
    <circle cx="110" cy="55" r="2" fill="#1e293b"/>
    <path d="M92 65C96 68 104 68 108 65" stroke="#1e293b" stroke-width="2" stroke-linecap="round"/>
    
    <!-- Body - smaller, rounder for child -->
    <path d="M85 85C85 85 75 100 75 120C75 130 125 130 125 120C125 100 115 85 115 85C115 85 110 90 100 90C90 90 85 85 85 85Z" fill="#64748b"/>
    
    <!-- Arms - shorter for child -->
    <path d="M80 95C70 95 65 105 70 115" stroke="#64748b" stroke-width="8" stroke-linecap="round"/>
    <path d="M120 95C130 95 135 105 130 115" stroke="#64748b" stroke-width="8" stroke-linecap="round"/>
    
    <!-- Legs - shorter for child -->
    <path d="M90 130L85 160" stroke="#64748b" stroke-width="8" stroke-linecap="round"/>
    <path d="M110 130L115 160" stroke="#64748b" stroke-width="8" stroke-linecap="round"/>
  </g>
  
  <!-- Department indicator - blue balloon for pediatrics -->
  <circle cx="140" cy="70" r="12" fill="#3b82f6" opacity="0.8"/>
  <path d="M140 82L130 110" stroke="#3b82f6" stroke-width="2" stroke-linecap="round"/>
</svg> 